<svg xmlns="http://www.w3.org/2000/svg" width="24" height="24" viewBox="0 0 24 24" role="img" aria-label="VC6 Impact">
  <path d="M4.75 4.75h9.5v6.5h-9.5z" fill="none" stroke="#000" stroke-width="1.7" stroke-linejoin="round"/>
  <path d="M7.25 7.25h4.5M7.25 9h2.75" fill="none" stroke="#000" stroke-width="1.25" stroke-linecap="round"/>
  <path d="M6.25 17.25a2.25 2.25 0 1 0 4.5 0 2.25 2.25 0 0 0-4.5 0ZM15.25 17.25a2.25 2.25 0 1 0 4.5 0 2.25 2.25 0 0 0-4.5 0ZM16.25 6.75a2 2 0 1 0 4 0 2 2 0 0 0-4 0Z" fill="none" stroke="#000" stroke-width="1.7"/>
  <path d="M13.95 8.5h2.35M10.35 15.9l5.2-6.75M10.95 17.25h4.3" fill="none" stroke="#000" stroke-width="1.55" stroke-linecap="round"/>
  <path d="M18.25 5.25v2.05" fill="none" stroke="#000" stroke-width="1.35" stroke-linecap="round"/>
</svg>
